# xmcd CD database file
#
# Track frame offsets:
#	150
#	51835
#	71594
#	85714
#	164759
#	215331
#	254120
#
# Disc length: 3822 seconds
#
# Revision: 0
# Processed by: cddbd v1.5.1PL0 Copyright (c) Steve Scherf et al.
# Submitted via: CDex 1.51
#
DISCID=660eec07
DTITLE=Sacha Gibson - Psyberion - Mutronic
DYEAR=2003
DGENRE=New Age
TTITLE0=Psyberion 1
TTITLE1=Psyberion 2
TTITLE2=Psyberion 3
TTITLE3=Psyberion 4
TTITLE4=Mutronic 1
TTITLE5=Mutronic 2
TTITLE6=Mutronic 3
EXTD=YEAR: 2003
EXTT0=
EXTT1=
EXTT2=
EXTT3=
EXTT4=
EXTT5=
EXTT6=
PLAYORDER=
